<svg xmlns="http://www.w3.org/2000/svg" xmlns:xlink="http://www.w3.org/1999/xlink" width="1080" zoomAndPan="magnify" viewBox="0 0 810 809.999993" height="1080" preserveAspectRatio="xMidYMid meet" version="1.0"><defs><g/><clipPath id="3b46e98633"><path d="M 26.167969 178.175781 L 783.667969 178.175781 L 783.667969 631.925781 L 26.167969 631.925781 Z M 26.167969 178.175781 " clip-rule="nonzero"/></clipPath></defs><g clip-path="url(#3b46e98633)"><path fill="#ffffff" d="M 599.511719 178.5 C 591.070312 178.5 584.273438 185.296875 584.273438 193.742188 L 584.273438 616.367188 C 584.273438 624.8125 591.070312 631.609375 599.511719 631.609375 L 768.445312 631.609375 C 776.886719 631.609375 783.683594 624.8125 783.683594 616.367188 L 783.683594 193.742188 C 783.683594 185.296875 776.886719 178.5 768.445312 178.5 Z M 38.535156 180.046875 C 31.683594 180.046875 26.167969 185.5625 26.167969 192.417969 L 26.167969 518.714844 C 26.167969 525.570312 31.683594 531.085938 38.535156 531.085938 L 251.207031 531.085938 L 246.019531 596.039062 L 170.007812 596.039062 C 165.726562 596.039062 162.277344 598.011719 162.277344 600.457031 L 162.277344 610.179688 C 162.277344 612.628906 165.726562 614.597656 170.007812 614.597656 L 403.425781 614.597656 C 407.707031 614.597656 411.15625 612.628906 411.15625 610.179688 L 411.15625 600.457031 C 411.15625 598.011719 407.707031 596.039062 403.425781 596.039062 L 330.5 596.039062 L 325.316406 531.085938 L 537.984375 531.085938 C 544.835938 531.085938 550.351562 525.570312 550.351562 518.714844 L 550.351562 192.417969 C 550.351562 185.5625 544.835938 180.046875 537.984375 180.046875 L 38.523438 180.046875 Z M 39.203125 197.058594 L 537.328125 197.058594 L 537.328125 514.097656 L 39.203125 514.097656 Z M 625.988281 226.441406 L 734.289062 226.441406 C 735.976562 226.441406 737.332031 227.800781 737.332031 229.488281 L 737.332031 231.128906 C 737.332031 232.816406 735.976562 234.175781 734.289062 234.175781 L 625.988281 234.175781 C 624.300781 234.175781 622.941406 232.816406 622.941406 231.128906 L 622.941406 229.488281 C 622.941406 227.800781 624.300781 226.441406 625.988281 226.441406 Z M 625.988281 245.332031 L 734.289062 245.332031 C 735.976562 245.332031 737.332031 246.691406 737.332031 248.378906 L 737.332031 250.019531 C 737.332031 251.707031 735.976562 253.066406 734.289062 253.066406 L 625.988281 253.066406 C 624.300781 253.066406 622.941406 251.707031 622.941406 250.019531 L 622.941406 248.378906 C 622.941406 246.691406 624.300781 245.332031 625.988281 245.332031 Z M 720.328125 282.113281 C 721.242188 282.113281 722.144531 282.203125 723.042969 282.382812 C 723.9375 282.558594 724.808594 282.824219 725.652344 283.171875 C 726.496094 283.523438 727.296875 283.953125 728.058594 284.460938 C 728.816406 284.96875 729.519531 285.542969 730.164062 286.191406 C 730.8125 286.835938 731.386719 287.539062 731.894531 288.300781 C 732.402344 289.058594 732.832031 289.863281 733.179688 290.707031 C 733.53125 291.550781 733.796875 292.421875 733.972656 293.316406 C 734.152344 294.214844 734.242188 295.117188 734.242188 296.03125 C 734.242188 296.945312 734.152344 297.851562 733.972656 298.746094 C 733.792969 299.644531 733.53125 300.515625 733.179688 301.359375 C 732.832031 302.203125 732.402344 303.003906 731.894531 303.765625 C 731.386719 304.523438 730.8125 305.226562 730.164062 305.875 C 729.519531 306.519531 728.816406 307.097656 728.058594 307.605469 C 727.296875 308.113281 726.496094 308.542969 725.652344 308.890625 C 724.808594 309.242188 723.9375 309.503906 723.042969 309.683594 C 722.144531 309.859375 721.242188 309.949219 720.328125 309.949219 C 719.414062 309.949219 718.507812 309.859375 717.613281 309.683594 C 716.71875 309.503906 715.847656 309.242188 715.003906 308.890625 C 714.160156 308.542969 713.359375 308.113281 712.597656 307.605469 C 711.839844 307.097656 711.136719 306.519531 710.492188 305.875 C 709.84375 305.226562 709.269531 304.523438 708.761719 303.765625 C 708.253906 303.003906 707.824219 302.203125 707.472656 301.359375 C 707.125 300.515625 706.859375 299.644531 706.683594 298.746094 C 706.503906 297.851562 706.414062 296.945312 706.414062 296.03125 C 706.414062 295.117188 706.503906 294.214844 706.683594 293.316406 C 706.859375 292.421875 707.125 291.550781 707.472656 290.707031 C 707.824219 289.863281 708.253906 289.058594 708.761719 288.300781 C 709.265625 287.539062 709.84375 286.835938 710.488281 286.191406 C 711.136719 285.542969 711.839844 284.96875 712.597656 284.460938 C 713.359375 283.953125 714.160156 283.523438 715.003906 283.171875 C 715.847656 282.824219 716.71875 282.558594 717.613281 282.382812 C 718.507812 282.203125 719.414062 282.113281 720.328125 282.113281 Z M 622.894531 364.851562 L 731.195312 364.851562 C 732.882812 364.851562 734.242188 366.210938 734.242188 367.898438 L 734.242188 369.539062 C 734.242188 371.226562 732.882812 372.582031 731.195312 372.582031 L 622.894531 372.582031 C 621.207031 372.582031 619.851562 371.226562 619.851562 369.539062 L 619.851562 367.898438 C 619.851562 366.210938 621.207031 364.851562 622.894531 364.851562 Z M 622.894531 387.941406 L 731.195312 387.941406 C 732.882812 387.941406 734.242188 389.300781 734.242188 390.988281 L 734.242188 392.628906 C 734.242188 394.316406 732.882812 395.671875 731.195312 395.671875 L 622.894531 395.671875 C 621.207031 395.671875 619.851562 394.316406 619.851562 392.628906 L 619.851562 390.988281 C 619.851562 389.300781 621.207031 387.941406 622.894531 387.941406 Z M 622.894531 411.03125 L 731.195312 411.03125 C 732.882812 411.03125 734.242188 412.390625 734.242188 414.078125 L 734.242188 415.71875 C 734.242188 417.40625 732.882812 418.761719 731.195312 418.761719 L 622.894531 418.761719 C 621.207031 418.761719 619.851562 417.40625 619.851562 415.71875 L 619.851562 414.078125 C 619.851562 412.390625 621.207031 411.03125 622.894531 411.03125 Z M 622.894531 434.121094 L 731.195312 434.121094 C 732.882812 434.121094 734.242188 435.480469 734.242188 437.167969 L 734.242188 438.808594 C 734.242188 440.496094 732.882812 441.855469 731.195312 441.855469 L 622.894531 441.855469 C 621.207031 441.855469 619.851562 440.496094 619.851562 438.808594 L 619.851562 437.167969 C 619.851562 435.480469 621.207031 434.121094 622.894531 434.121094 Z M 712.550781 512.542969 L 742.015625 512.542969 C 747.125 512.542969 751.242188 516.660156 751.242188 521.773438 L 751.242188 563.621094 C 751.242188 568.734375 747.125 572.851562 742.015625 572.851562 L 712.550781 572.851562 C 707.4375 572.851562 703.320312 568.734375 703.320312 563.621094 L 703.320312 521.773438 C 703.320312 516.660156 707.4375 512.542969 712.550781 512.542969 Z M 712.550781 512.542969 " fill-opacity="1" fill-rule="nonzero"/></g><g fill="#ffffff" fill-opacity="1"><g transform="translate(63.453552, 406.111832)"><g><path d="M 75.703125 0 L 5.625 0 L 5.625 -14.75 L 30.796875 -40.1875 C 38.242188 -47.820312 43.109375 -53.113281 45.390625 -56.0625 C 47.679688 -59.007812 49.328125 -61.738281 50.328125 -64.25 C 51.335938 -66.769531 51.84375 -69.375 51.84375 -72.0625 C 51.84375 -76.09375 50.734375 -79.085938 48.515625 -81.046875 C 46.296875 -83.015625 43.335938 -84 39.640625 -84 C 35.753906 -84 31.976562 -83.109375 28.3125 -81.328125 C 24.65625 -79.546875 20.84375 -77.007812 16.875 -73.71875 L 5.34375 -87.359375 C 10.28125 -91.566406 14.367188 -94.535156 17.609375 -96.265625 C 20.859375 -98.003906 24.40625 -99.34375 28.25 -100.28125 C 32.09375 -101.21875 36.390625 -101.6875 41.140625 -101.6875 C 47.398438 -101.6875 52.929688 -100.546875 57.734375 -98.265625 C 62.535156 -95.984375 66.257812 -92.785156 68.90625 -88.671875 C 71.5625 -84.554688 72.890625 -79.84375 72.890625 -74.53125 C 72.890625 -69.914062 72.078125 -65.582031 70.453125 -61.53125 C 68.835938 -57.488281 66.328125 -53.34375 62.921875 -49.09375 C 59.515625 -44.84375 53.515625 -38.785156 44.921875 -30.921875 L 32.03125 -18.78125 L 32.03125 -17.828125 L 75.703125 -17.828125 Z M 75.703125 0 "/></g></g><g transform="translate(143.613536, 406.111832)"><g><path d="M 50.53125 -76.53125 C 50.53125 -68.707031 48.4375 -62.585938 44.25 -58.171875 C 40.070312 -53.765625 34.351562 -51.5625 27.09375 -51.5625 C 20.09375 -51.5625 14.476562 -53.8125 10.25 -58.3125 C 6.019531 -62.820312 3.90625 -68.894531 3.90625 -76.53125 C 3.90625 -84.25 5.953125 -90.328125 10.046875 -94.765625 C 14.140625 -99.203125 19.910156 -101.421875 27.359375 -101.421875 C 34.304688 -101.421875 39.90625 -99.164062 44.15625 -94.65625 C 48.40625 -90.15625 50.53125 -84.113281 50.53125 -76.53125 Z M 17.828125 -76.53125 C 17.828125 -71.957031 18.566406 -68.515625 20.046875 -66.203125 C 21.535156 -63.898438 23.925781 -62.75 27.21875 -62.75 C 30.507812 -62.75 32.875 -63.898438 34.3125 -66.203125 C 35.757812 -68.515625 36.484375 -71.957031 36.484375 -76.53125 C 36.484375 -81.101562 35.757812 -84.519531 34.3125 -86.78125 C 32.875 -89.039062 30.507812 -90.171875 27.21875 -90.171875 C 23.925781 -90.171875 21.535156 -89.039062 20.046875 -86.78125 C 18.566406 -84.519531 17.828125 -81.101562 17.828125 -76.53125 Z M 17.828125 -76.53125 "/></g></g><g transform="translate(198.127811, 406.111832)"><g/></g><g transform="translate(234.607804, 406.111832)"><g><path d="M 12.625 0 L 12.625 -100.25 L 33.875 -100.25 L 33.875 0 Z M 12.625 0 "/></g></g><g transform="translate(281.099224, 406.111832)"><g><path d="M 81.734375 0 L 60.828125 0 L 60.828125 -44.78125 C 60.828125 -50.3125 59.84375 -54.457031 57.875 -57.21875 C 55.90625 -59.988281 52.773438 -61.375 48.484375 -61.375 C 42.628906 -61.375 38.398438 -59.414062 35.796875 -55.5 C 33.191406 -51.59375 31.890625 -45.113281 31.890625 -36.0625 L 31.890625 0 L 10.96875 0 L 10.96875 -76.671875 L 26.953125 -76.671875 L 29.765625 -66.859375 L 30.921875 -66.859375 C 33.253906 -70.554688 36.46875 -73.351562 40.5625 -75.25 C 44.65625 -77.15625 49.304688 -78.109375 54.515625 -78.109375 C 63.429688 -78.109375 70.195312 -75.695312 74.8125 -70.875 C 79.425781 -66.050781 81.734375 -59.085938 81.734375 -49.984375 Z M 81.734375 0 "/></g></g><g transform="translate(373.396348, 406.111832)"><g><path d="M 53.34375 -60.96875 L 35.25 -60.96875 L 35.25 0 L 14.328125 0 L 14.328125 -60.96875 L 2.8125 -60.96875 L 2.8125 -71.046875 L 14.328125 -76.671875 L 14.328125 -82.28125 C 14.328125 -91.019531 16.472656 -97.398438 20.765625 -101.421875 C 25.066406 -105.441406 31.953125 -107.453125 41.421875 -107.453125 C 48.640625 -107.453125 55.0625 -106.378906 60.6875 -104.234375 L 55.34375 -88.875 C 51.132812 -90.195312 47.25 -90.859375 43.6875 -90.859375 C 40.707031 -90.859375 38.554688 -89.976562 37.234375 -88.21875 C 35.910156 -86.457031 35.25 -84.207031 35.25 -81.46875 L 35.25 -76.671875 L 53.34375 -76.671875 Z M 53.34375 -60.96875 "/></g></g><g transform="translate(427.77348, 406.111832)"><g><path d="M 27.640625 -38.46875 C 27.640625 -30.882812 28.882812 -25.144531 31.375 -21.25 C 33.863281 -17.363281 37.921875 -15.421875 43.546875 -15.421875 C 49.117188 -15.421875 53.128906 -17.351562 55.578125 -21.21875 C 58.023438 -25.082031 59.25 -30.832031 59.25 -38.46875 C 59.25 -46.0625 58.015625 -51.753906 55.546875 -55.546875 C 53.078125 -59.335938 49.03125 -61.234375 43.40625 -61.234375 C 37.832031 -61.234375 33.8125 -59.347656 31.34375 -55.578125 C 28.875 -51.804688 27.640625 -46.101562 27.640625 -38.46875 Z M 80.640625 -38.46875 C 80.640625 -25.988281 77.347656 -16.226562 70.765625 -9.1875 C 64.179688 -2.144531 55.015625 1.375 43.265625 1.375 C 35.910156 1.375 29.421875 -0.234375 23.796875 -3.453125 C 18.171875 -6.679688 13.847656 -11.3125 10.828125 -17.34375 C 7.816406 -23.382812 6.3125 -30.425781 6.3125 -38.46875 C 6.3125 -51 9.578125 -60.738281 16.109375 -67.6875 C 22.648438 -74.632812 31.84375 -78.109375 43.6875 -78.109375 C 51.039062 -78.109375 57.53125 -76.503906 63.15625 -73.296875 C 68.78125 -70.097656 73.097656 -65.503906 76.109375 -59.515625 C 79.128906 -53.523438 80.640625 -46.507812 80.640625 -38.46875 Z M 80.640625 -38.46875 "/></g></g></g></svg>